<svg width="27" height="19" viewBox="0 0 27 19" fill="none" xmlns="http://www.w3.org/2000/svg">
<path d="M0.816761 18H2.9304V11.1818H6.74858C6.90199 11.1818 7.04688 11.1818 7.19176 11.1733L10.8736 18H13.3281L9.3821 10.7898C11.6065 10.0312 12.6463 8.21591 12.6463 5.89773C12.6463 2.8125 10.8054 0.545454 6.71449 0.545454H0.816761V18ZM2.9304 9.27273V2.42045H6.64631C9.47585 2.42045 10.5668 3.80114 10.5668 5.89773C10.5668 7.99432 9.47585 9.27273 6.6804 9.27273H2.9304ZM24.1456 12.6477C24.1456 15.1023 22.2706 16.2273 20.7706 16.2273C19.1001 16.2273 17.907 15 17.907 13.0909V4.90909H15.8956V13.2273C15.8956 16.5682 17.6683 18.1705 20.1229 18.1705C22.1001 18.1705 23.3956 17.1136 24.0092 15.7841H24.1456V18H26.157V4.90909H24.1456V12.6477Z" fill="white"/>
<path d="M-1.29688 22.7727H27.9979V24.4091H-1.29688V22.7727Z" fill="white"/>
</svg>
